# xmcd CD database file
#
# Track frame offsets:
#	150
#	16842
#	32510
#	49117
#	61595
#	78729
#	97547
#	114447
#	132772
#	156695
#	179867
#	197010
#	220609
#	236192
#	249452
#	274507
#	300217
#
# Disc length: 4417 seconds
#
# Revision: 0
# Processed by: cddbd v1.5.1PL2 Copyright (c) Steve Scherf et al.
# Submitted via: CDex 1.51
#
DISCID=d9113f11
DTITLE=Tubby Hayes - England's late jazz great
DYEAR=2005
DGENRE=Jazz
TTITLE0=Stella by starlight
TTITLE1=I keep thinking it's Thursday
TTITLE2=Guys and dolls
TTITLE3=Plebus
TTITLE4=Love letters
TTITLE5=The serpent
TTITLE6=Sophisticaded lady
TTITLE7=The goblin
TTITLE8=There is no greater love
TTITLE9=A moment's notice
TTITLE10=Souriya
TTITLE11=Young and foolish
TTITLE12=Parisian thoroughfare
TTITLE13=Heather mist
TTITLE14=A song for a sad lady
TTITLE15=You know I care
TTITLE16=I thought about you
EXTD=YEAR: 2005
EXTT0=
EXTT1=
EXTT2=
EXTT3=
EXTT4=
EXTT5=
EXTT6=
EXTT7=
EXTT8=
EXTT9=
EXTT10=
EXTT11=
EXTT12=
EXTT13=
EXTT14=
EXTT15=
EXTT16=
PLAYORDER=
